<svg width="37" height="37" viewBox="0 0 37 37" fill="none" xmlns="http://www.w3.org/2000/svg">
<g clip-path="url(#clip0_1_550)">
<path d="M18.5 37C18.7413 37 19.18 36.9098 19.6626 36.6394C29.512 31.0976 33 28.5744 33 21.9061V8.34415C33 6.49685 32.1444 5.93365 30.7843 5.32539C29.0075 4.5369 21.7465 1.90112 19.9697 1.27034C19.509 1.11264 19.0045 1 18.5 1C17.9954 1 17.4689 1.1577 17.0302 1.27034C15.2534 1.7209 7.99241 4.55944 6.21557 5.32539C4.85552 5.91113 4 6.49685 4 8.34415V21.9061C4 28.5744 7.48788 31.075 17.3373 36.6394C17.8199 36.9098 18.2587 37 18.5 37ZM18.5 33.3053C18.2367 33.3053 17.9735 33.2377 17.3812 32.8998C9.46216 28.0336 7.11497 26.5918 7.11497 21.1176V8.95243C7.11497 8.54693 7.20271 8.36669 7.55369 8.20899C10.3615 7.08259 15.0998 5.52814 17.9077 4.3792C18.127 4.2891 18.3245 4.26658 18.5 4.26658C18.6754 4.26658 18.8729 4.2891 19.0922 4.3792C21.8781 5.52814 26.5507 7.21775 29.4244 8.20899C29.7972 8.34415 29.8631 8.54693 29.8631 8.95243V21.1176C29.8631 26.5918 27.5159 28.0336 19.5968 32.8998C19.0264 33.2377 18.7632 33.3053 18.5 33.3053Z" fill="#277B93"/>
</g>
<defs>
<clipPath id="clip0_1_550">
<rect width="37" height="37" fill="white"/>
</clipPath>
</defs>
</svg>
