<svg width="37" height="39" viewBox="0 0 37 39" fill="none" xmlns="http://www.w3.org/2000/svg">
<g clip-path="url(#clip0_1_528)">
<path d="M7.7768 37H30.223C33.4694 37 35 36.0198 35 33.8682C35 28.9434 28.9709 21.7472 19 21.7472C9.05216 21.7472 3 28.9434 3 33.8682C3 36.0198 4.55362 37 7.7768 37ZM6.73333 33.7724C6.47824 33.7724 6.33912 33.7007 6.33912 33.4378C6.33912 30.6406 10.7913 24.9747 19 24.9747C27.2086 24.9747 31.6608 30.6406 31.6608 33.4378C31.6608 33.7007 31.5216 33.7724 31.2666 33.7724H6.73333ZM19 19.5478C23.3825 19.5478 26.9769 15.5075 26.9769 10.6544C26.9769 5.80121 23.4289 2 19 2C14.6174 2 11.0232 5.87294 11.0232 10.7022C11.0232 15.5314 14.6405 19.5478 19 19.5478ZM19 16.3442C16.542 16.3442 14.3623 13.834 14.3623 10.7022C14.3623 7.57034 16.4724 5.22745 19 5.22745C21.5507 5.22745 23.6376 7.52253 23.6376 10.6544C23.6376 13.7862 21.5043 16.3442 19 16.3442Z" fill="#277B93" fill-opacity="0.85"/>
</g>
<defs>
<clipPath id="clip0_1_528">
<rect width="37" height="39" fill="white"/>
</clipPath>
</defs>
</svg>
