<svg width="37" height="37" viewBox="0 0 37 37" fill="none" xmlns="http://www.w3.org/2000/svg">
<g clip-path="url(#clip0_1_539)">
<path d="M10.8018 4.57159V6.05277C10.8018 6.32707 10.8213 6.58306 10.8799 6.8208H10.7628C9.45496 6.8208 8.81081 7.64368 8.81081 8.86887V30.3004C8.81081 31.6171 9.57207 32.3669 11.0556 32.3669H26.9444C28.4084 32.3669 29.1697 31.6171 29.1697 30.3004V21.3325L32 18.6776V30.3371C32 33.464 30.3604 35 27.081 35H10.8994C7.62012 35 6 33.464 6 30.3371V8.8323C6 5.79676 7.54205 4.16928 10.7042 4.16928H10.8213C10.8018 4.29728 10.8018 4.44358 10.8018 4.57159ZM31.9852 8.388L29.1697 11.0225V8.86887C29.1697 7.64368 28.5255 6.8208 27.2373 6.8208H27.1201C27.1787 6.58306 27.1981 6.32707 27.1981 6.05277V4.57159C27.1981 4.44358 27.1981 4.29728 27.1787 4.16928H27.2958C30.2804 4.16928 31.8391 5.63731 31.9852 8.388ZM22.4745 3.03552H23.7432C24.6996 3.03552 25.2852 3.60241 25.2852 4.57159V6.10763C25.2852 7.07681 24.6996 7.64368 23.7432 7.64368H14.2372C13.2808 7.64368 12.7147 7.07681 12.7147 6.10763V4.57159C12.7147 3.60241 13.2808 3.03552 14.2372 3.03552H15.506C15.6426 1.35319 17.1456 0 19 0C20.8543 0 22.3574 1.35319 22.4745 3.03552ZM17.6727 3.16353C17.6727 3.84012 18.2778 4.40701 19 4.40701C19.7222 4.40701 20.3078 3.84012 20.3078 3.16353C20.3078 2.48693 19.7222 1.93836 19 1.93836C18.2778 1.93836 17.6727 2.48693 17.6727 3.16353Z" fill="#277B93"/>
<path d="M14.7855 25.1144C14.7855 25.6662 14.3337 26.1263 13.7914 26.1263H12.02C11.4778 26.1263 11.0259 25.6662 11.0259 25.1144C11.0259 24.5624 11.4597 24.1207 12.02 24.1207H13.7914C14.3517 24.1207 14.7855 24.5624 14.7855 25.1144ZM18.0411 20.7907H12.02C11.4597 20.7907 11.0259 20.3491 11.0259 19.7786C11.0259 19.2268 11.4597 18.7852 12.02 18.7852H20.0137L18.0411 20.7907ZM24.8472 13.8713L23.0179 15.731H12.02C11.4778 15.731 11.0259 15.271 11.0259 14.719C11.0259 14.1671 11.4778 13.7071 12.02 13.7071H24.3112C24.5075 13.7071 24.6921 13.7674 24.8472 13.8713Z" fill="#277B93"/>
<path d="M34.6041 12.6819L35.6886 11.5412C36.1948 11.0076 36.1948 10.2348 35.7067 9.71967L35.3091 9.3149C34.8392 8.85493 34.08 8.91012 33.5919 9.40688L32.4893 10.5108L34.6041 12.6819ZM18.5172 27.2904L21.5177 25.9842L33.5016 13.8042L31.3688 11.6699L19.3848 23.85L18.0292 26.7754C17.9027 27.0514 18.21 27.4193 18.5172 27.2904Z" fill="#277B93"/>
</g>
<defs>
<clipPath id="clip0_1_539">
<rect width="37" height="37" fill="white"/>
</clipPath>
</defs>
</svg>
